<mxfile host="app.diagrams.net" modified="2023-12-26T17:24:15.536Z" agent="Mozilla/5.0 (Windows NT 10.0; Win64; x64) AppleWebKit/537.36 (KHTML, like Gecko) Chrome/120.0.0.0 Safari/537.36" etag="El_2HLWIoB49DP2cThnZ" version="22.1.11" type="device">
  <diagram name="Page-1" id="1d73FItkTppKvEePjvrc">
    <mxGraphModel dx="913" dy="731" grid="1" gridSize="10" guides="1" tooltips="1" connect="1" arrows="1" fold="1" page="0" pageScale="1" pageWidth="850" pageHeight="1100" math="0" shadow="0">
      <root>
        <mxCell id="0" />
        <mxCell id="1" parent="0" />
        <mxCell id="PQqeEI2fuOX6E4MgAa5z-1" value="" style="html=1;overflow=block;blockSpacing=1;whiteSpace=wrap;fontSize=13;spacing=3.8;strokeColor=#3a414a;strokeOpacity=100;fillOpacity=100;rounded=1;absoluteArcSize=1;arcSize=9;fillColor=#f4d9ff;strokeWidth=0.8;lucidId=excYj77VuCkA;" vertex="1" parent="1">
          <mxGeometry x="645" y="588" width="180" height="180" as="geometry" />
        </mxCell>
        <mxCell id="PQqeEI2fuOX6E4MgAa5z-2" value="" style="html=1;overflow=block;blockSpacing=1;whiteSpace=wrap;fontSize=13;spacing=3.8;strokeColor=#3a414a;strokeOpacity=100;fillOpacity=100;rounded=1;absoluteArcSize=1;arcSize=9;fillColor=#fff7a1;strokeWidth=0.8;lucidId=hvcY-4o_BGwF;" vertex="1" parent="1">
          <mxGeometry x="1110" y="106" width="210" height="158" as="geometry" />
        </mxCell>
        <mxCell id="PQqeEI2fuOX6E4MgAa5z-3" value="" style="html=1;overflow=block;blockSpacing=1;whiteSpace=wrap;fontSize=13;spacing=3.8;strokeColor=#3a414a;strokeOpacity=100;fillOpacity=100;rounded=1;absoluteArcSize=1;arcSize=9;fillColor=#ffd9d9;strokeWidth=0.8;lucidId=XtcYVAqiBOkF;" vertex="1" parent="1">
          <mxGeometry x="1470" y="502" width="240" height="246" as="geometry" />
        </mxCell>
        <mxCell id="PQqeEI2fuOX6E4MgAa5z-4" value="" style="html=1;overflow=block;blockSpacing=1;whiteSpace=wrap;fontSize=13;spacing=3.8;strokeColor=#3a414a;strokeOpacity=100;fillOpacity=100;rounded=1;absoluteArcSize=1;arcSize=9;fillColor=#c3f7c8;strokeWidth=0.8;lucidId=GrcYufA_g_BS;" vertex="1" parent="1">
          <mxGeometry x="870" y="105" width="150" height="489" as="geometry" />
        </mxCell>
        <mxCell id="PQqeEI2fuOX6E4MgAa5z-5" value="" style="html=1;overflow=block;blockSpacing=1;whiteSpace=wrap;fontSize=13;spacing=3.8;strokeColor=#3a414a;strokeOpacity=100;fillOpacity=100;rounded=1;absoluteArcSize=1;arcSize=9;fillColor=#cfe4ff;strokeWidth=0.8;lucidId=PocY7mbIZlU1;" vertex="1" parent="1">
          <mxGeometry x="1020" y="615" width="300" height="375" as="geometry" />
        </mxCell>
        <mxCell id="PQqeEI2fuOX6E4MgAa5z-6" value="Authentication Filter" style="html=1;overflow=block;blockSpacing=1;whiteSpace=wrap;fontSize=16.7;fontColor=#3a414a;spacing=3.8;strokeColor=#3a414a;strokeOpacity=100;rounded=1;absoluteArcSize=1;arcSize=9;strokeWidth=0.8;lucidId=QIaYxQ2q7qnK;" vertex="1" parent="1">
          <mxGeometry x="572" y="270" width="208" height="60" as="geometry" />
        </mxCell>
        <mxCell id="PQqeEI2fuOX6E4MgAa5z-7" value="User Service" style="html=1;overflow=block;blockSpacing=1;whiteSpace=wrap;fontSize=16.7;fontColor=#3a414a;spacing=3.8;strokeColor=#3a414a;strokeOpacity=100;rounded=1;absoluteArcSize=1;arcSize=9;strokeWidth=0.8;lucidId=-IaY1jF3945N;" vertex="1" parent="1">
          <mxGeometry x="885" y="165" width="120" height="77" as="geometry" />
        </mxCell>
        <mxCell id="PQqeEI2fuOX6E4MgAa5z-8" value="JWT Service" style="html=1;overflow=block;blockSpacing=1;whiteSpace=wrap;fontSize=16.7;fontColor=#3a414a;spacing=3.8;strokeColor=#3a414a;strokeOpacity=100;rounded=1;absoluteArcSize=1;arcSize=9;strokeWidth=0.8;lucidId=vJaY2JwuzzmN;" vertex="1" parent="1">
          <mxGeometry x="885" y="345" width="120" height="77" as="geometry" />
        </mxCell>
        <mxCell id="PQqeEI2fuOX6E4MgAa5z-9" value="User Repository" style="html=1;overflow=block;blockSpacing=1;whiteSpace=wrap;fontSize=16.7;fontColor=#3a414a;spacing=3.8;strokeColor=#3a414a;strokeOpacity=100;rounded=1;absoluteArcSize=1;arcSize=9;strokeWidth=0.8;lucidId=PJaYEatl8Py.;" vertex="1" parent="1">
          <mxGeometry x="1133" y="166" width="165" height="75" as="geometry" />
        </mxCell>
        <mxCell id="PQqeEI2fuOX6E4MgAa5z-10" value="" style="html=1;jettySize=18;whiteSpace=wrap;fontSize=13;strokeColor=#3a414a;strokeOpacity=100;strokeWidth=0.8;rounded=1;arcSize=12;edgeStyle=orthogonalEdgeStyle;startArrow=none;endArrow=block;endFill=1;exitX=1.002;exitY=0.5;exitPerimeter=0;entryX=-0.003;entryY=0.804;entryPerimeter=0;lucidId=lKaY6BScjl8P;" edge="1" parent="1" source="PQqeEI2fuOX6E4MgAa5z-6" target="PQqeEI2fuOX6E4MgAa5z-7">
          <mxGeometry width="100" height="100" relative="1" as="geometry">
            <Array as="points" />
          </mxGeometry>
        </mxCell>
        <mxCell id="PQqeEI2fuOX6E4MgAa5z-11" value="" style="html=1;jettySize=18;whiteSpace=wrap;fontSize=13;strokeColor=#3a414a;strokeOpacity=100;strokeWidth=0.8;rounded=1;arcSize=12;edgeStyle=orthogonalEdgeStyle;startArrow=none;endArrow=block;endFill=1;exitX=1.002;exitY=0.5;exitPerimeter=0;entryX=-0.003;entryY=0.5;entryPerimeter=0;lucidId=pKaY3refQrEi;" edge="1" parent="1" source="PQqeEI2fuOX6E4MgAa5z-6" target="PQqeEI2fuOX6E4MgAa5z-8">
          <mxGeometry width="100" height="100" relative="1" as="geometry">
            <Array as="points" />
          </mxGeometry>
        </mxCell>
        <mxCell id="PQqeEI2fuOX6E4MgAa5z-12" value="User" style="html=1;overflow=block;blockSpacing=1;whiteSpace=wrap;fontSize=16.7;fontColor=#3a414a;spacing=3.8;strokeColor=#3a414a;strokeOpacity=100;rounded=1;absoluteArcSize=1;arcSize=9;strokeWidth=0.8;lucidId=5KaY~2DiIGuh;" vertex="1" parent="1">
          <mxGeometry x="675" y="714" width="120" height="45" as="geometry" />
        </mxCell>
        <mxCell id="PQqeEI2fuOX6E4MgAa5z-13" value="Role" style="html=1;overflow=block;blockSpacing=1;whiteSpace=wrap;fontSize=16.7;fontColor=#3a414a;spacing=3.8;strokeColor=#3a414a;strokeOpacity=100;rounded=1;absoluteArcSize=1;arcSize=9;strokeWidth=0.8;lucidId=jLaY_rslgYSn;" vertex="1" parent="1">
          <mxGeometry x="675" y="639" width="120" height="45" as="geometry" />
        </mxCell>
        <mxCell id="PQqeEI2fuOX6E4MgAa5z-14" value="" style="html=1;jettySize=18;whiteSpace=wrap;fontSize=13;strokeColor=#3a414a;strokeOpacity=100;strokeWidth=0.8;rounded=1;arcSize=12;edgeStyle=orthogonalEdgeStyle;startArrow=none;endArrow=block;endFill=1;exitX=0.5;exitY=-0.008;exitPerimeter=0;entryX=0.5;entryY=1.008;entryPerimeter=0;lucidId=rLaYe~y_EZFO;" edge="1" parent="1" source="PQqeEI2fuOX6E4MgAa5z-12" target="PQqeEI2fuOX6E4MgAa5z-13">
          <mxGeometry width="100" height="100" relative="1" as="geometry">
            <Array as="points" />
          </mxGeometry>
        </mxCell>
        <mxCell id="PQqeEI2fuOX6E4MgAa5z-15" value="Authentication Controller" style="html=1;overflow=block;blockSpacing=1;whiteSpace=wrap;fontSize=16.7;fontColor=#3a414a;spacing=3.8;strokeColor=#3a414a;strokeOpacity=100;rounded=1;absoluteArcSize=1;arcSize=9;strokeWidth=0.8;lucidId=4MaY4nARKZkY;" vertex="1" parent="1">
          <mxGeometry x="1485" y="562" width="208" height="48" as="geometry" />
        </mxCell>
        <mxCell id="PQqeEI2fuOX6E4MgAa5z-16" value="Security Configuration" style="html=1;overflow=block;blockSpacing=1;whiteSpace=wrap;fontSize=16.7;fontColor=#3a414a;spacing=3.8;strokeColor=#3a414a;strokeOpacity=100;rounded=1;absoluteArcSize=1;arcSize=9;strokeWidth=0.8;lucidId=64aYFAENmPjd;" vertex="1" parent="1">
          <mxGeometry x="572" y="390" width="208" height="60" as="geometry" />
        </mxCell>
        <mxCell id="PQqeEI2fuOX6E4MgAa5z-17" value="" style="html=1;jettySize=18;whiteSpace=wrap;fontSize=13;strokeColor=#3a414a;strokeOpacity=100;strokeWidth=0.8;rounded=1;arcSize=12;edgeStyle=orthogonalEdgeStyle;startArrow=none;endArrow=block;endFill=1;exitX=0.5;exitY=-0.006;exitPerimeter=0;entryX=0.5;entryY=1.006;entryPerimeter=0;lucidId=~9aYdWtz9EE8;" edge="1" parent="1" source="PQqeEI2fuOX6E4MgAa5z-16" target="PQqeEI2fuOX6E4MgAa5z-6">
          <mxGeometry width="100" height="100" relative="1" as="geometry">
            <Array as="points" />
          </mxGeometry>
        </mxCell>
        <mxCell id="PQqeEI2fuOX6E4MgAa5z-18" value="User Controller" style="html=1;overflow=block;blockSpacing=1;whiteSpace=wrap;fontSize=16.7;fontColor=#3a414a;spacing=3.8;strokeColor=#3a414a;strokeOpacity=100;rounded=1;absoluteArcSize=1;arcSize=9;strokeWidth=0.8;lucidId=NabYlmQ7GX.w;" vertex="1" parent="1">
          <mxGeometry x="1485" y="621" width="208" height="48" as="geometry" />
        </mxCell>
        <mxCell id="PQqeEI2fuOX6E4MgAa5z-19" value="Admin Controller" style="html=1;overflow=block;blockSpacing=1;whiteSpace=wrap;fontSize=16.7;fontColor=#3a414a;spacing=3.8;strokeColor=#3a414a;strokeOpacity=100;rounded=1;absoluteArcSize=1;arcSize=9;strokeWidth=0.8;lucidId=UabYRxt8EETI;" vertex="1" parent="1">
          <mxGeometry x="1485" y="680" width="208" height="48" as="geometry" />
        </mxCell>
        <mxCell id="PQqeEI2fuOX6E4MgAa5z-20" value="Authentication Service" style="html=1;overflow=block;blockSpacing=1;whiteSpace=wrap;fontSize=16.7;fontColor=#3a414a;spacing=3.8;strokeColor=#3a414a;strokeOpacity=100;rounded=1;absoluteArcSize=1;arcSize=9;strokeWidth=0.8;lucidId=.bbYvCb2e714;" vertex="1" parent="1">
          <mxGeometry x="885" y="510" width="120" height="77" as="geometry" />
        </mxCell>
        <mxCell id="PQqeEI2fuOX6E4MgAa5z-21" value="" style="html=1;jettySize=18;whiteSpace=wrap;fontSize=13;strokeColor=#3a414a;strokeOpacity=100;strokeWidth=0.8;rounded=1;arcSize=12;edgeStyle=orthogonalEdgeStyle;startArrow=none;endArrow=block;endFill=1;exitX=1.002;exitY=0.5;exitPerimeter=0;entryX=-0.003;entryY=0.185;entryPerimeter=0;lucidId=p_bYayMnlbBh;" edge="1" parent="1" source="PQqeEI2fuOX6E4MgAa5z-16" target="PQqeEI2fuOX6E4MgAa5z-7">
          <mxGeometry width="100" height="100" relative="1" as="geometry">
            <Array as="points">
              <mxPoint x="810" y="420" />
              <mxPoint x="810" y="179" />
            </Array>
          </mxGeometry>
        </mxCell>
        <mxCell id="PQqeEI2fuOX6E4MgAa5z-22" value="" style="html=1;jettySize=18;whiteSpace=wrap;fontSize=13;strokeColor=#3a414a;strokeOpacity=100;strokeWidth=0.8;rounded=1;arcSize=12;edgeStyle=orthogonalEdgeStyle;startArrow=none;endArrow=block;endFill=1;exitX=1.003;exitY=0.272;exitPerimeter=0;entryX=1.003;entryY=0.746;entryPerimeter=0;lucidId=H~bY0Tq4dAKV;" edge="1" parent="1" source="PQqeEI2fuOX6E4MgAa5z-20" target="PQqeEI2fuOX6E4MgAa5z-7">
          <mxGeometry width="100" height="100" relative="1" as="geometry">
            <Array as="points">
              <mxPoint x="1050" y="531" />
              <mxPoint x="1050" y="222" />
            </Array>
          </mxGeometry>
        </mxCell>
        <mxCell id="PQqeEI2fuOX6E4MgAa5z-23" value="" style="html=1;jettySize=18;whiteSpace=wrap;fontSize=13;strokeColor=#3a414a;strokeOpacity=100;strokeWidth=0.8;rounded=1;arcSize=12;edgeStyle=orthogonalEdgeStyle;startArrow=none;endArrow=block;endFill=1;exitX=0.5;exitY=-0.005;exitPerimeter=0;entryX=0.5;entryY=1.005;entryPerimeter=0;lucidId=eacYk1QYfLH0;" edge="1" parent="1" source="PQqeEI2fuOX6E4MgAa5z-20" target="PQqeEI2fuOX6E4MgAa5z-8">
          <mxGeometry width="100" height="100" relative="1" as="geometry">
            <Array as="points" />
          </mxGeometry>
        </mxCell>
        <mxCell id="PQqeEI2fuOX6E4MgAa5z-24" value="JWT Authentication Response" style="html=1;overflow=block;blockSpacing=1;whiteSpace=wrap;fontSize=16.7;fontColor=#3a414a;spacing=3.8;strokeColor=#3a414a;strokeOpacity=100;rounded=1;absoluteArcSize=1;arcSize=9;strokeWidth=0.8;lucidId=XdcYMS6nizGE;" vertex="1" parent="1">
          <mxGeometry x="1050" y="677" width="240" height="48" as="geometry" />
        </mxCell>
        <mxCell id="PQqeEI2fuOX6E4MgAa5z-25" value="Refresh Response" style="html=1;overflow=block;blockSpacing=1;whiteSpace=wrap;fontSize=16.7;fontColor=#3a414a;spacing=3.8;strokeColor=#3a414a;strokeOpacity=100;rounded=1;absoluteArcSize=1;arcSize=9;strokeWidth=0.8;lucidId=jecYnmMysuxx;" vertex="1" parent="1">
          <mxGeometry x="1050" y="737" width="240" height="48" as="geometry" />
        </mxCell>
        <mxCell id="PQqeEI2fuOX6E4MgAa5z-26" value="Sign In Request" style="html=1;overflow=block;blockSpacing=1;whiteSpace=wrap;fontSize=16.7;fontColor=#3a414a;spacing=3.8;strokeColor=#3a414a;strokeOpacity=100;rounded=1;absoluteArcSize=1;arcSize=9;strokeWidth=0.8;lucidId=JecY7Hfu6Fw1;" vertex="1" parent="1">
          <mxGeometry x="1050" y="797" width="240" height="48" as="geometry" />
        </mxCell>
        <mxCell id="PQqeEI2fuOX6E4MgAa5z-27" value="Sign Up Request" style="html=1;overflow=block;blockSpacing=1;whiteSpace=wrap;fontSize=16.7;fontColor=#3a414a;spacing=3.8;strokeColor=#3a414a;strokeOpacity=100;rounded=1;absoluteArcSize=1;arcSize=9;strokeWidth=0.8;lucidId=~ecYyc8Rotoz;" vertex="1" parent="1">
          <mxGeometry x="1050" y="857" width="240" height="48" as="geometry" />
        </mxCell>
        <mxCell id="PQqeEI2fuOX6E4MgAa5z-28" value="" style="html=1;jettySize=18;whiteSpace=wrap;fontSize=13;strokeColor=#3a414a;strokeOpacity=100;strokeWidth=0.8;rounded=1;arcSize=12;edgeStyle=orthogonalEdgeStyle;startArrow=none;endArrow=block;endFill=1;exitX=0.5;exitY=1.005;exitPerimeter=0;entryX=-0.002;entryY=0.5;entryPerimeter=0;lucidId=rhcY3QO.JkPk;" edge="1" parent="1" source="PQqeEI2fuOX6E4MgAa5z-20" target="PQqeEI2fuOX6E4MgAa5z-24">
          <mxGeometry width="100" height="100" relative="1" as="geometry">
            <Array as="points" />
          </mxGeometry>
        </mxCell>
        <mxCell id="PQqeEI2fuOX6E4MgAa5z-29" value="" style="html=1;jettySize=18;whiteSpace=wrap;fontSize=13;strokeColor=#3a414a;strokeOpacity=100;strokeWidth=0.8;rounded=1;arcSize=12;edgeStyle=orthogonalEdgeStyle;startArrow=none;endArrow=block;endFill=1;exitX=0.5;exitY=1.005;exitPerimeter=0;entryX=-0.002;entryY=0.5;entryPerimeter=0;lucidId=ShcYUmg1xBAn;" edge="1" parent="1" source="PQqeEI2fuOX6E4MgAa5z-20" target="PQqeEI2fuOX6E4MgAa5z-25">
          <mxGeometry width="100" height="100" relative="1" as="geometry">
            <Array as="points" />
          </mxGeometry>
        </mxCell>
        <mxCell id="PQqeEI2fuOX6E4MgAa5z-30" value="" style="html=1;jettySize=18;whiteSpace=wrap;fontSize=13;strokeColor=#3a414a;strokeOpacity=100;strokeWidth=0.8;rounded=1;arcSize=12;edgeStyle=orthogonalEdgeStyle;startArrow=none;endArrow=block;endFill=1;exitX=0.5;exitY=1.005;exitPerimeter=0;entryX=-0.002;entryY=0.5;entryPerimeter=0;lucidId=XhcY730U1iMK;" edge="1" parent="1" source="PQqeEI2fuOX6E4MgAa5z-20" target="PQqeEI2fuOX6E4MgAa5z-26">
          <mxGeometry width="100" height="100" relative="1" as="geometry">
            <Array as="points" />
          </mxGeometry>
        </mxCell>
        <mxCell id="PQqeEI2fuOX6E4MgAa5z-31" value="" style="html=1;jettySize=18;whiteSpace=wrap;fontSize=13;strokeColor=#3a414a;strokeOpacity=100;strokeWidth=0.8;rounded=1;arcSize=12;edgeStyle=orthogonalEdgeStyle;startArrow=none;endArrow=block;endFill=1;exitX=0.5;exitY=1.005;exitPerimeter=0;entryX=-0.002;entryY=0.5;entryPerimeter=0;lucidId=8hcYvSibkp9L;" edge="1" parent="1" source="PQqeEI2fuOX6E4MgAa5z-20" target="PQqeEI2fuOX6E4MgAa5z-27">
          <mxGeometry width="100" height="100" relative="1" as="geometry">
            <Array as="points" />
          </mxGeometry>
        </mxCell>
        <mxCell id="PQqeEI2fuOX6E4MgAa5z-32" value="" style="html=1;jettySize=18;whiteSpace=wrap;fontSize=13;strokeColor=#3a414a;strokeOpacity=100;strokeWidth=0.8;rounded=1;arcSize=12;edgeStyle=orthogonalEdgeStyle;startArrow=none;endArrow=block;endFill=1;exitX=0.5;exitY=1.005;exitPerimeter=0;entryX=1.003;entryY=0.438;entryPerimeter=0;lucidId=DicYw.jGYrre;" edge="1" parent="1" source="PQqeEI2fuOX6E4MgAa5z-20" target="PQqeEI2fuOX6E4MgAa5z-12">
          <mxGeometry width="100" height="100" relative="1" as="geometry">
            <Array as="points" />
          </mxGeometry>
        </mxCell>
        <mxCell id="PQqeEI2fuOX6E4MgAa5z-33" value="HTTP Request / Response DTO" style="html=1;overflow=block;blockSpacing=1;whiteSpace=wrap;fontSize=16.7;fontColor=#3a414a;fontStyle=1;spacing=3.8;strokeOpacity=0;fillOpacity=0;rounded=1;absoluteArcSize=1;arcSize=9;fillColor=#ffffff;strokeWidth=0.8;lucidId=DqcYKClpZRM2;" vertex="1" parent="1">
          <mxGeometry x="1035" y="615" width="270" height="44" as="geometry" />
        </mxCell>
        <mxCell id="PQqeEI2fuOX6E4MgAa5z-34" value="Services" style="html=1;overflow=block;blockSpacing=1;whiteSpace=wrap;fontSize=16.7;fontColor=#3a414a;fontStyle=1;spacing=3.8;strokeOpacity=0;fillOpacity=0;rounded=1;absoluteArcSize=1;arcSize=9;fillColor=#ffffff;strokeWidth=0.8;lucidId=6rcYJFHa8_6-;" vertex="1" parent="1">
          <mxGeometry x="870" y="120" width="150" height="30" as="geometry" />
        </mxCell>
        <mxCell id="PQqeEI2fuOX6E4MgAa5z-35" value="Controllers" style="html=1;overflow=block;blockSpacing=1;whiteSpace=wrap;fontSize=16.7;fontColor=#3a414a;fontStyle=1;spacing=3.8;strokeOpacity=0;fillOpacity=0;rounded=1;absoluteArcSize=1;arcSize=9;fillColor=#ffffff;strokeWidth=0.8;lucidId=aucYza~vegVq;" vertex="1" parent="1">
          <mxGeometry x="1499" y="502" width="180" height="45" as="geometry" />
        </mxCell>
        <mxCell id="PQqeEI2fuOX6E4MgAa5z-36" value="Repository" style="html=1;overflow=block;blockSpacing=1;whiteSpace=wrap;fontSize=16.7;fontColor=#3a414a;fontStyle=1;spacing=3.8;strokeOpacity=0;fillOpacity=0;rounded=1;absoluteArcSize=1;arcSize=9;fillColor=#ffffff;strokeWidth=0.8;lucidId=EvcYKOLI2I5h;" vertex="1" parent="1">
          <mxGeometry x="1125" y="106" width="180" height="45" as="geometry" />
        </mxCell>
        <mxCell id="PQqeEI2fuOX6E4MgAa5z-37" value="" style="html=1;jettySize=18;whiteSpace=wrap;fontSize=13;strokeColor=#3a414a;strokeOpacity=100;strokeWidth=0.8;rounded=1;arcSize=12;edgeStyle=orthogonalEdgeStyle;startArrow=none;endArrow=block;endFill=1;exitX=0.5;exitY=1.001;exitPerimeter=0;entryX=1.003;entryY=0.5;entryPerimeter=0;lucidId=SwcYzAaeu5P_;" edge="1" parent="1" source="PQqeEI2fuOX6E4MgAa5z-4" target="PQqeEI2fuOX6E4MgAa5z-13">
          <mxGeometry width="100" height="100" relative="1" as="geometry">
            <Array as="points" />
          </mxGeometry>
        </mxCell>
        <mxCell id="PQqeEI2fuOX6E4MgAa5z-38" value="Models" style="html=1;overflow=block;blockSpacing=1;whiteSpace=wrap;fontSize=16.7;fontColor=#3a414a;fontStyle=1;spacing=3.8;strokeOpacity=0;fillOpacity=0;rounded=1;absoluteArcSize=1;arcSize=9;fillColor=#ffffff;strokeWidth=0.8;lucidId=BxcYC.qh.MCA;" vertex="1" parent="1">
          <mxGeometry x="645" y="588" width="180" height="45" as="geometry" />
        </mxCell>
        <mxCell id="PQqeEI2fuOX6E4MgAa5z-39" value="Sign Up Response" style="html=1;overflow=block;blockSpacing=1;whiteSpace=wrap;fontSize=16.7;fontColor=#3a414a;spacing=3.8;strokeColor=#3a414a;strokeOpacity=100;rounded=1;absoluteArcSize=1;arcSize=9;strokeWidth=0.8;lucidId=.doYylwhqk~y;" vertex="1" parent="1">
          <mxGeometry x="1050" y="917" width="240" height="48" as="geometry" />
        </mxCell>
        <mxCell id="PQqeEI2fuOX6E4MgAa5z-40" value="" style="html=1;jettySize=18;whiteSpace=wrap;fontSize=13;strokeColor=#3a414a;strokeOpacity=100;strokeWidth=0.8;rounded=1;arcSize=12;edgeStyle=orthogonalEdgeStyle;startArrow=none;endArrow=block;endFill=1;exitX=0.5;exitY=1.005;exitPerimeter=0;entryX=-0.002;entryY=0.5;entryPerimeter=0;lucidId=jfoYSJqa3ph3;" edge="1" parent="1" source="PQqeEI2fuOX6E4MgAa5z-20" target="PQqeEI2fuOX6E4MgAa5z-39">
          <mxGeometry width="100" height="100" relative="1" as="geometry">
            <Array as="points" />
          </mxGeometry>
        </mxCell>
        <mxCell id="PQqeEI2fuOX6E4MgAa5z-41" value="" style="html=1;jettySize=18;whiteSpace=wrap;fontSize=13;strokeColor=#3a414a;strokeOpacity=100;strokeWidth=0.8;rounded=1;arcSize=12;edgeStyle=orthogonalEdgeStyle;startArrow=none;endArrow=block;endFill=1;exitX=-0.002;exitY=0.199;exitPerimeter=0;entryX=1.003;entryY=0.799;entryPerimeter=0;lucidId=7koYxuNKPgD_;" edge="1" parent="1" source="PQqeEI2fuOX6E4MgAa5z-15" target="PQqeEI2fuOX6E4MgAa5z-20">
          <mxGeometry width="100" height="100" relative="1" as="geometry">
            <Array as="points" />
          </mxGeometry>
        </mxCell>
        <mxCell id="PQqeEI2fuOX6E4MgAa5z-42" value="" style="html=1;jettySize=18;whiteSpace=wrap;fontSize=13;strokeColor=#3a414a;strokeOpacity=100;strokeWidth=0.8;rounded=1;arcSize=12;edgeStyle=orthogonalEdgeStyle;startArrow=none;endArrow=block;endFill=1;exitX=-0.002;exitY=0.5;exitPerimeter=0;entryX=1.002;entryY=0.5;entryPerimeter=0;lucidId=hmoYLf9t4c-b;" edge="1" parent="1" source="PQqeEI2fuOX6E4MgAa5z-15" target="PQqeEI2fuOX6E4MgAa5z-39">
          <mxGeometry width="100" height="100" relative="1" as="geometry">
            <Array as="points" />
          </mxGeometry>
        </mxCell>
        <mxCell id="PQqeEI2fuOX6E4MgAa5z-43" value="" style="html=1;jettySize=18;whiteSpace=wrap;fontSize=13;strokeColor=#3a414a;strokeOpacity=100;strokeWidth=0.8;rounded=1;arcSize=12;edgeStyle=orthogonalEdgeStyle;startArrow=none;endArrow=block;endFill=1;exitX=-0.002;exitY=0.5;exitPerimeter=0;entryX=1.002;entryY=0.5;entryPerimeter=0;lucidId=GmoYzYbS4Ync;" edge="1" parent="1" source="PQqeEI2fuOX6E4MgAa5z-15" target="PQqeEI2fuOX6E4MgAa5z-24">
          <mxGeometry width="100" height="100" relative="1" as="geometry">
            <Array as="points" />
          </mxGeometry>
        </mxCell>
        <mxCell id="PQqeEI2fuOX6E4MgAa5z-44" value="" style="html=1;jettySize=18;whiteSpace=wrap;fontSize=13;strokeColor=#3a414a;strokeOpacity=100;strokeWidth=0.8;rounded=1;arcSize=12;edgeStyle=orthogonalEdgeStyle;startArrow=none;endArrow=block;endFill=1;exitX=-0.002;exitY=0.5;exitPerimeter=0;entryX=1.002;entryY=0.5;entryPerimeter=0;lucidId=jooY1NGK4GaC;" edge="1" parent="1" source="PQqeEI2fuOX6E4MgAa5z-15" target="PQqeEI2fuOX6E4MgAa5z-27">
          <mxGeometry width="100" height="100" relative="1" as="geometry">
            <Array as="points" />
          </mxGeometry>
        </mxCell>
        <mxCell id="PQqeEI2fuOX6E4MgAa5z-45" value="" style="html=1;jettySize=18;whiteSpace=wrap;fontSize=13;strokeColor=#3a414a;strokeOpacity=100;strokeWidth=0.8;rounded=1;arcSize=12;edgeStyle=orthogonalEdgeStyle;startArrow=none;endArrow=block;endFill=1;exitX=-0.002;exitY=0.5;exitPerimeter=0;entryX=1.002;entryY=0.5;entryPerimeter=0;lucidId=xooYQp0AVpPw;" edge="1" parent="1" source="PQqeEI2fuOX6E4MgAa5z-15" target="PQqeEI2fuOX6E4MgAa5z-26">
          <mxGeometry width="100" height="100" relative="1" as="geometry">
            <Array as="points" />
          </mxGeometry>
        </mxCell>
        <mxCell id="PQqeEI2fuOX6E4MgAa5z-46" value="" style="html=1;jettySize=18;whiteSpace=wrap;fontSize=13;strokeColor=#3a414a;strokeOpacity=100;strokeWidth=0.8;rounded=1;arcSize=12;edgeStyle=orthogonalEdgeStyle;startArrow=none;endArrow=block;endFill=1;exitX=-0.002;exitY=0.5;exitPerimeter=0;entryX=1.002;entryY=0.5;entryPerimeter=0;lucidId=HooYA-i0mfGU;" edge="1" parent="1" source="PQqeEI2fuOX6E4MgAa5z-15" target="PQqeEI2fuOX6E4MgAa5z-25">
          <mxGeometry width="100" height="100" relative="1" as="geometry">
            <Array as="points" />
          </mxGeometry>
        </mxCell>
        <mxCell id="PQqeEI2fuOX6E4MgAa5z-47" value="" style="html=1;jettySize=18;whiteSpace=wrap;fontSize=13;strokeColor=#3a414a;strokeOpacity=100;strokeWidth=0.8;rounded=1;arcSize=12;edgeStyle=orthogonalEdgeStyle;startArrow=none;endArrow=block;endFill=1;exitX=1.003;exitY=0.5;exitPerimeter=0;entryX=-0.002;entryY=0.5;entryPerimeter=0;lucidId=zqoYWIf2OggF;" edge="1" parent="1" source="PQqeEI2fuOX6E4MgAa5z-7" target="PQqeEI2fuOX6E4MgAa5z-9">
          <mxGeometry width="100" height="100" relative="1" as="geometry">
            <Array as="points" />
          </mxGeometry>
        </mxCell>
      </root>
    </mxGraphModel>
  </diagram>
</mxfile>
